
        <svg xmlns="http://www.w3.org/2000/svg" xmlns:xlink="http://www.w3.org/1999/xlink" version="1.1" width="3148.8833746898263" 
        height="617.8660049627791" viewBox="0 0 3148.8833746898263 617.8660049627791">
			
			<g transform="scale(7.444168734491315) translate(10, 10)">
				<defs id="SvgjsDefs7175"></defs><g id="SvgjsG7176" featureKey="symbolContainer" transform="matrix(1,0,0,1,0,0)" fill="#f262f2">    <path xmlns="http://www.w3.org/2000/svg" fill-rule="nonzero" d="             M0,0             H103             V63             H0,0             z             M4,4             v55             h95             v-55             z     "></path></g><g id="SvgjsG7177" featureKey="symbolFeature-0" transform="matrix(240.31610925331668,0,0,240.31610925331668,17,14)" fill="#f262f2"><defs xmlns="http://www.w3.org/2000/svg"></defs><g xmlns="http://www.w3.org/2000/svg"><polygon class="fil0" points="0.0584283,0.0310901 0.107302,0.0310901 0.107302,0.0552985 0.135199,0.0552985 0.135199,0.0110943 0.153494,0.000759832 0.153494,0.0310901 0.232855,0.0310901 0.291283,0.143565 0.282539,0.143565 0.261965,0.104117 0.231265,0.0452435 0.229304,0.0414837 0.227343,0.0452435 0.196639,0.104117 0.176065,0.143565 -0,0.143565 " style="fill: #f262f2;"></polygon><path class="fil1" d="M0.125254 0l0.0253225 0 -0.015799 0.00898807 -0.0253186 0 0.0157951 -0.00898807zm0.0126573 0m0.00476372 0.00449207m-0.0205588 0.004496m-0.00476372 -0.004496" style="fill: #f262f2; fill-rule: nonzero;"></path></g></g><g id="SvgjsG7178" featureKey="nameFeature-0" transform="matrix(1.595623332972182,0,0,1.595623332972182,118.21313076193594,-9.38158000455294)" fill="#e9e4f0"><path d="M25.28 40 l-5.36 0 l0 -13.8 l-11.56 0 l0 13.8 l-5.36 0 l0 -28.48 l5.36 0 l0 9.44 l11.56 0 l0 -9.44 l5.36 0 l0 28.48 z M38.8 40.44 c-2.48 0 -4.92 -1 -6.8 -2.8 c-1.8 -1.88 -2.8 -4.32 -2.8 -6.8 c0 -2.52 1 -4.96 2.8 -6.8 c1.84 -1.76 4.24 -2.76 6.8 -2.76 c2.64 0 5.04 1 6.76 2.76 c1.84 1.84 2.84 4.24 2.84 6.8 s-1 4.96 -2.84 6.8 c-1.8 1.8 -4.2 2.8 -6.76 2.8 z M38.8 25.84 c-2.68 0 -4.88 2.24 -4.88 5 s2.2 5 4.88 5 c2.72 0 4.92 -2.24 4.92 -5 s-2.2 -5 -4.92 -5 z M60.68 40.44 c-2.32 0 -4.48 -0.84 -6.04 -2.4 c-1.64 -1.56 -2.52 -3.68 -2.52 -5.96 l0 -10.4 l5.04 0 l0 10.4 c0 1.88 1.56 3.4 3.52 3.4 s3.56 -1.52 3.56 -3.4 l0 -10.4 l5.04 0 l0 10.4 c0 2.24 -0.92 4.36 -2.56 5.96 c-1.6 1.56 -3.72 2.4 -6.04 2.4 z M80.88000000000001 40.16 c-0.56 0 -1.16 -0.08 -1.88 -0.2 c-2 -0.4 -3.88 -1.28 -5.36 -2.6 l-0.6 -0.48 l3 -3.32 l0.56 0.52 c1.76 1.48 3.2 1.76 4.12 1.76 c0.68 0 1.16 -0.08 1.64 -0.32 c0.6 -0.24 0.88 -0.64 0.88 -1.2 c0 -0.48 -0.28 -1.08 -2.64 -1.48 c-2.16 -0.44 -3.52 -0.88 -4.16 -1.24 c-0.84 -0.48 -1.52 -1.12 -2 -1.92 s-0.72 -1.68 -0.72 -2.68 c0 -1.04 0.32 -2.04 0.96 -2.96 c0.52 -0.76 1.28 -1.36 2.4 -1.92 c0.92 -0.44 1.96 -0.64 3.2 -0.64 c0.44 0 0.88 0.04 1.28 0.08 c1.76 0.28 3.52 1.04 4.96 2.16 l0.6 0.48 l-2.84 3.28 l-0.56 -0.44 c-1.4 -1.12 -2.6 -1.32 -3.32 -1.32 c-0.52 0 -1 0.08 -1.44 0.28 c-0.52 0.28 -0.8 0.72 -0.8 1 c0 0.56 0.4 0.96 2.48 1.44 c2.72 0.64 3.6 0.96 4.16 1.2 c1.12 0.64 1.6 1.16 2 1.68 c0.6 0.84 0.88 1.88 0.88 3 c0 1.16 -0.32 2.2 -0.92 3.04 s-1.4 1.56 -2.56 2.12 c-0.92 0.44 -2.12 0.68 -3.32 0.68 z M99.12 40.44 l-0.04 0 c-1.16 0 -2.36 -0.28 -3.48 -0.8 c-1.04 -0.44 -2 -1.16 -2.88 -2.08 c-1.4 -1.52 -2.24 -3.52 -2.44 -5.6 c-0.04 -0.36 -0.08 -0.72 -0.08 -1.12 c0 -0.8 0.12 -1.64 0.32 -2.48 c0.36 -1.6 1.12 -3.08 2.2 -4.2 c0.8 -0.88 1.72 -1.56 2.88 -2.12 c1.08 -0.52 2.28 -0.76 3.52 -0.76 c1.28 0 2.44 0.24 3.52 0.76 c1.2 0.56 2.16 1.28 2.88 2.12 c1.04 1.12 1.84 2.56 2.24 4.2 c0.2 0.76 0.28 1.56 0.28 2.48 l0 0.92 l-13.44 0 l0.04 0.28 c0.52 2.48 2.4 4.28 4.48 4.28 l0.04 0 c1.16 -0.08 2.44 -0.8 3.2 -1.44 l0.44 -0.36 l3.32 2.88 l-0.6 0.52 c-0.44 0.4 -1 0.88 -1.6 1.2 l-0.04 0 c-1.44 0.84 -3 1.28 -4.76 1.32 z M99.12 25.439999999999998 c-1.56 0 -3.12 1.08 -3.96 2.76 l-0.16 0.32 l8.28 0 l-0.16 -0.32 c-0.92 -1.72 -2.44 -2.76 -4 -2.76 z M121.36 40 l-9.56 0 l0 -28.48 l9.56 0 c8.04 0 14.6 6.4 14.6 14.24 s-6.56 14.24 -14.6 14.24 z M117.12 34.76 l4.24 0 c5.12 0 9.28 -4.04 9.28 -9 s-4.16 -9 -9.28 -9 l-4.24 0 l0 18 z M148.23999999999998 40.44 c-2.48 0 -4.92 -1 -6.8 -2.8 c-1.8 -1.88 -2.8 -4.32 -2.8 -6.8 c0 -2.52 1 -4.96 2.8 -6.8 c1.84 -1.76 4.24 -2.76 6.8 -2.76 c2.64 0 5.04 1 6.76 2.76 c1.84 1.84 2.84 4.24 2.84 6.8 s-1 4.96 -2.84 6.8 c-1.8 1.8 -4.2 2.8 -6.76 2.8 z M148.23999999999998 25.84 c-2.68 0 -4.88 2.24 -4.88 5 s2.2 5 4.88 5 c2.72 0 4.92 -2.24 4.92 -5 s-2.2 -5 -4.92 -5 z M170.12 40.4 c-2.56 0 -4.96 -1 -6.76 -2.76 l-0.04 -0.04 c-1.76 -1.8 -2.76 -4.2 -2.76 -6.76 s1 -5 2.76 -6.8 c1.8 -1.76 4.2 -2.76 6.8 -2.76 c2.64 0 5.04 0.96 6.76 2.76 c0.4 0.4 0.72 0.76 1 1.12 l0.48 0.72 l-3.92 2.92 l-0.56 -0.76 c-0.96 -1.28 -2.36 -2.08 -3.76 -2.08 c-2.52 0 -4.68 2.24 -4.68 4.88 s2.16 4.88 4.68 4.88 c1.4 0 2.8 -0.8 3.76 -2.16 l0.52 -0.72 l4.08 2.92 l-0.6 0.76 c-0.08 0.12 -0.2 0.24 -0.32 0.36 c-0.2 0.24 -0.44 0.52 -0.68 0.76 c-1.76 1.76 -4.16 2.76 -6.76 2.76 z"></path></g>
			</g>
		</svg>
	